#!OML:ASF H:\Terrain\Patient Classification 1\Terrain2\Thursday\justin.ASF
:FULLY-SPECIFIED
:DEGREES
3648
root -12.0329 17.6954 6.38134 -182.172 182.041 -182.565
lowerback 6.6717 0.0590679 -0.153449
upperback 2.86539 0.103448 2.71797
thorax -0.791687 0.0355515 2.87844
lowerneck -14.4962 1.91285 -5.94137
upperneck 39.0152 5.39715 -1.09054
head 16.3333 1.20245 1.52754
rclavicle -7.95139e-016 -5.56597e-015
rhumerus -30.794 -3.18914 -84.2537
rradius 37.0578
rwrist -13.5047
rhand -21.0599 13.6241
rfingers 7.12502
rthumb 5.31653 -16.2892
lclavicle -7.95139e-016 -5.56597e-015
lhumerus -32.2562 2.74231 83.2209
lradius 40.913
lwrist 7.30587
lhand -16.9875 24.4799
lfingers 7.12502
lthumb 9.24738 54.2571
rfemur -15.4737 -5.95257 22.2085
rtibia 59.0573
rfoot -17.3593 -2.34489
rtoes 1.08273
lfemur -11.8271 2.97081 -18.9358
ltibia 22.8799
lfoot -5.59227 -10.8135
ltoes 3.36311
3649
root -12.0443 17.6751 6.43033 -182.142 181.888 -182.709
lowerback 6.82852 0.0279133 -0.242684
upperback 2.81405 0.0612958 2.82207
thorax -0.929336 0.0148056 3.04044
lowerneck -14.6232 1.86704 -5.94637
upperneck 39.0957 5.36807 -1.1423
head 16.4119 1.17627 1.50486
rclavicle 2.48481e-015 -4.37326e-015
rhumerus -30.5972 -2.92512 -84.2491
rradius 37.1282
rwrist -13.3938
rhand -20.6099 12.76
rfingers 7.12502
rthumb 5.75096 -17.1419
lclavicle 2.48481e-015 -4.37326e-015
lhumerus -32.2606 2.60139 83.222
lradius 41.6005
lwrist 7.635
lhand -17.5374 23.7055
lfingers 7.12502
lthumb 8.71678 53.5056
rfemur -15.8073 -5.56888 22.502
rtibia 57.7689
rfoot -18.047 -1.90971
rtoes 2.2559
lfemur -12.1829 2.69479 -18.7208
ltibia 23.5816
lfoot -6.23203 -10.8626
ltoes 5.8123
3650
root -12.0506 17.6692 6.47598 -182.084 181.871 -182.96
lowerback 6.98168 0.0210097 -0.117584
upperback 2.75552 0.0648243 2.89405
thorax -1.07476 0.0184582 3.04487
lowerneck -14.7611 1.88969 -5.81852
upperneck 39.1491 5.37464 -1.13612
head 16.4765 1.19387 1.49024
rclavicle 8.44835e-016 -1.59028e-015
rhumerus -30.5967 -2.72284 -84.3052
rradius 37.364
rwrist -13.3206
rhand -20.1871 12.5351
rfingers 7.12502
rthumb 6.1592 -17.3554
lclavicle 8.44835e-016 -1.59028e-015
lhumerus -32.2582 2.6185 83.0665
lradius 42.3782
lwrist 7.62414
lhand -17.3464 23.7257
lfingers 7.12502
lthumb 8.9011 53.5179
rfemur -16.1491 -5.16998 22.9013
rtibia 56.3633
rfoot -18.7239 -1.77211
rtoes 0.356449
lfemur -12.4009 2.6925 -18.4385
ltibia 24.2377
lfoot -7.18429 -10.8109
ltoes 4.42181
3651
root -12.0578 17.6696 6.51607 -181.799 181.894 -183.691
lowerback 6.89908 0.011238 0.526599
upperback 2.65283 0.0976108 3.06143
thorax -1.13598 0.0381635 2.85199
lowerneck -14.7498 1.87171 -5.8114
upperneck 39.0793 5.2726 -0.97543
head 16.4294 1.1788 1.54034
rclavicle -1.00883e-014 -1.51076e-014
rhumerus -30.8029 -2.41551 -84.4869
rradius 37.8992
rwrist -13.2674
rhand -20.0452 12.3968
rfingers 7.12502
rthumb 6.29618 -17.4896
lclavicle -1.00883e-014 -1.51076e-014
lhumerus -32.1636 2.59741 82.8616
lradius 43.0448
lwrist 7.42129
lhand -17.1105 23.9191
lfingers 7.12502
lthumb 9.12869 53.7015
rfemur -16.7337 -4.57577 23.8714
rtibia 54.8366
rfoot -19.4614 -1.55172
rtoes -1.49872
lfemur -12.7893 2.68542 -17.6288
ltibia 24.885
lfoot -7.80818 -10.6228
ltoes 1.26036
3652
root -12.0707 17.6665 6.57166 -181.529 181.742 -183.678
lowerback 6.53579 -0.00973548 0.292236
upperback 2.6724 0.0468982 3.09083
thorax -0.911884 0.0103413 3.0171
lowerneck -14.893 1.89357 -5.69779
upperneck 39.0453 5.33833 -1.11846
head 16.4562 1.20155 1.47201
rclavicle 6.70898e-015 -4.73108e-014
rhumerus -30.7521 -1.75449 -84.6927
rradius 38.3959
rwrist -13.6621
rhand -20.098 11.3579
rfingers 7.12502
rthumb 6.24522 -18.53
lclavicle 6.70898e-015 -4.73108e-014
lhumerus -31.9684 2.68239 82.7977
lradius 43.6435
lwrist 7.57972
lhand -17.4225 23.9553
lfingers 7.12502
lthumb 8.82767 53.7506
rfemur -17.2008 -4.08389 23.9251
rtibia 53.2717
rfoot -20.2874 -0.909058
rtoes -0.93795
lfemur -13.229 2.52564 -17.6217
ltibia 25.5516
lfoot -8.12696 -10.6073
ltoes 1.71004
3653
root -12.0874 17.6633 6.63444 -181.492 181.544 -183.255
lowerback 6.34297 0.0281644 -0.330685
upperback 2.73992 0.0544842 3.00874
thorax -0.735723 0.00911327 3.28256
lowerneck -14.8707 1.95921 -5.51683
upperneck 38.8828 5.48958 -1.41431
head 16.3827 1.2576 1.33497
rclavicle -2.33572e-015 -6.75868e-015
rhumerus -30.6446 -1.72462 -84.6316
rradius 38.4396
rwrist -13.9851
rhand -19.6136 11.9099
rfingers 7.12502
rthumb 6.71282 -17.9637
lclavicle -2.33572e-015 -6.75868e-015
lhumerus -31.8622 2.5816 82.8524
lradius 44.2115
lwrist 8.11001
lhand -17.4652 23.9269
lfingers 7.12502
lthumb 8.78648 53.724
rfemur -17.2737 -3.65407 23.4683
rtibia 51.6856
rfoot -20.8315 -0.306157
rtoes 1.08617
lfemur -13.3783 2.33282 -18.029
ltibia 26.1247
lfoot -8.51442 -10.7558
ltoes 3.66118
3654
root -12.0968 17.654 6.68933 -181.503 181.339 -183.494
lowerback 6.2267 0.0359769 -0.114142
upperback 2.84386 0.0738089 3.07588
thorax -0.565159 0.0177789 3.22797
lowerneck -14.7987 1.91688 -5.63293
upperneck 38.6845 5.41851 -1.34654
head 16.2554 1.2321 1.36874
rclavicle 8.24956e-015 1.15295e-014
rhumerus -30.4725 -1.8411 -84.6105
rradius 38.4412
rwrist -13.9207
rhand -19.6559 12.1257
rfingers 7.12502
rthumb 6.67205 -17.7492
lclavicle 8.24956e-015 1.15295e-014
lhumerus -31.6249 2.31958 82.8963
lradius 44.6302
lwrist 8.39505
lhand -17.5678 23.7148
lfingers 7.12502
lthumb 8.68746 53.5161
rfemur -17.235 -3.16859 23.7072
rtibia 50.0658
rfoot -21.3992 0.285378
rtoes 1.14255
lfemur -13.2929 1.95143 -17.736
ltibia 26.5023
lfoot -8.9398 -10.5741
ltoes 2.33175
3655
root -12.0938 17.6363 6.75048 -181.493 181.082 -183.517
lowerback 6.2159 0.0201699 0.128449
upperback 2.74519 0.0682458 2.99952
thorax -0.660465 0.0187506 3.01215
lowerneck -14.6356 1.8328 -5.85358
upperneck 38.7917 5.21815 -0.99715
head 16.2514 1.16553 1.523
rclavicle 5.91384e-015 -3.57812e-014
rhumerus -30.6051 -1.79448 -84.6743
rradius 38.371
rwrist -14.0046
rhand -19.7378 11.6314
rfingers 7.12502
rthumb 6.59294 -18.2459
lclavicle 5.91384e-015 -3.57812e-014
lhumerus -31.6181 1.94422 82.8467
lradius 44.9339
lwrist 8.54684
lhand -17.7915 24.1985
lfingers 7.12502
lthumb 8.47158 54.0085
rfemur -17.2382 -2.77107 23.5706
rtibia 48.4795
rfoot -22.1258 1.22637
rtoes -0.982314
lfemur -13.1863 1.63986 -17.7777
ltibia 26.8218
lfoot -9.27444 -10.3695
ltoes 0.988919
3656
root -12.1013 17.6279 6.80337 -181.475 180.89 -183.585
lowerback 6.28514 -0.0223868 0.179763
upperback 2.65481 0.0184902 3.00416
thorax -0.789444 -0.00434847 2.99173
lowerneck -14.5264 1.83508 -5.99437
upperneck 38.8163 5.17338 -0.780465
head 16.2228 1.15825 1.63222
rclavicle -8.24956e-015 5.1684e-015
rhumerus -30.741 -1.75318 -84.6634
rradius 38.5167
rwrist -14.1704
rhand -19.3457 11.0974
rfingers 7.12502
rthumb 6.97142 -18.7678
lclavicle -8.24956e-015 5.1684e-015
lhumerus -31.6248 1.80169 82.8158
lradius 45.2211
lwrist 9.08125
lhand -18.1602 24.6685
lfingers 7.12502
lthumb 8.11569 54.4926
rfemur -17.2811 -1.9888 23.5851
rtibia 46.8683
rfoot -22.5401 1.78231
rtoes -2.30107
lfemur -13.2078 1.64196 -17.6902
ltibia 27.1212
lfoot -9.4904 -10.5571
ltoes 1.08859
3657
root -12.1144 17.6208 6.84978 -181.399 180.674 -183.557
lowerback 6.1864 -0.0863405 -0.0122407
upperback 2.72836 -0.0808915 3.03636
thorax -0.65325 -0.0568883 3.13966
lowerneck -14.5786 1.82367 -6.09668
upperneck 38.6106 5.17271 -0.762483
head 16.125 1.15365 1.6554
rclavicle 1.53561e-014 -1.55052e-014
rhumerus -30.5903 -1.68393 -84.6574
rradius 38.7025
rwrist -14.4353
rhand -19.0674 11.5401
rfingers 7.12502
rthumb 7.24014 -18.3161
lclavicle 1.53561e-014 -1.55052e-014
lhumerus -31.4352 1.92359 82.7729
lradius 45.6278
lwrist 9.53112
lhand -18.7493 23.998
lfingers 7.12502
lthumb 7.54709 53.8433
rfemur -17.4014 -1.29876 23.5427
rtibia 45.2982
rfoot -22.655 2.11161
rtoes -3.43241
lfemur -13.3161 1.68735 -17.6957
ltibia 27.3748
lfoot -9.84862 -10.7445
ltoes 0.671974
3658
root -12.1198 17.6179 6.90797 -181.468 180.437 -183.373
lowerback 6.00301 -0.122727 -0.175085
upperback 2.88618 -0.145644 2.98797
thorax -0.384916 -0.0935057 3.18425
lowerneck -14.5629 1.76012 -6.16565
upperneck 38.5347 5.13562 -0.868174
head 16.0884 1.1171 1.61387
rclavicle -2.68359e-015 -3.18055e-015
rhumerus -30.361 -1.55043 -84.7043
rradius 38.5292
rwrist -14.2026
rhand -19.5281 12.4577
rfingers 7.12502
rthumb 6.79541 -17.4133
lclavicle -2.68359e-015 -3.18055e-015
lhumerus -31.25 2.18412 82.6685
lradius 46.0221
lwrist 9.29523
lhand -18.6898 23.2285
lfingers 7.12502
lthumb 7.60457 53.0718
rfemur -17.2284 -1.00747 23.2356
rtibia 43.7512
rfoot -22.7116 2.79845
rtoes -5.55178
lfemur -13.1585 1.52352 -17.8981
ltibia 27.5686
lfoot -10.1361 -10.8274
ltoes 3.3522
3659
root -12.1298 17.6123 6.96723 -181.683 180.297 -183.611
lowerback 6.24222 -0.136913 0.0907536
upperback 2.82235 -0.143675 3.03461
thorax -0.58434 -0.0886073 3.08392
lowerneck -14.3988 1.77361 -6.11366
upperneck 38.777 5.17177 -0.938367
head 16.1787 1.12251 1.58098
rclavicle -1.11816e-014 2.26615e-014
rhumerus -30.43 -1.76575 -84.599
rradius 38.0468
rwrist -14.0908
rhand -19.1869 13.7443
rfingers 7.12502
rthumb 7.1247 -16.1157
lclavicle -1.11816e-014 2.26615e-014
lhumerus -31.479 2.34543 82.5273
lradius 46.3437
lwrist 8.81691
lhand -18.2517 22.8839
lfingers 7.12502
lthumb 8.02741 52.7115
rfemur -16.9073 -0.370287 23.4344
rtibia 42.3001
rfoot -22.7104 3.26981
rtoes -6.27714
lfemur -12.8343 1.34329 -17.5737
ltibia 27.7719
lfoot -10.1732 -11.0083
ltoes 6.69462
3660
root -12.1429 17.6037 7.02309 -181.669 180.19 -183.77
lowerback 6.28483 -0.134337 0.232654
upperback 2.75789 -0.12937 3.04363
thorax -0.675544 -0.0793759 3.01263
lowerneck -14.4565 1.85676 -5.96465
upperneck 38.9278 5.28215 -0.968202
head 16.2731 1.17932 1.56477
rclavicle 6.01324e-015 -1.51076e-014
rhumerus -30.3046 -1.91441 -84.5665
rradius 37.5832
rwrist -14.6079
rhand -18.4542 14.3025
rfingers 7.12502
rthumb 7.83194 -15.5325
lclavicle 6.01324e-015 -1.51076e-014
lhumerus -31.4594 2.32363 82.4365
lradius 46.5258
lwrist 8.77369
lhand -18.3535 23.1777
lfingers 7.12502
lthumb 7.92917 53.0089
rfemur -16.922 0.484685 23.571
rtibia 41.0042
rfoot -22.5941 3.54845
rtoes -5.03338
lfemur -12.7601 1.35585 -17.3707
ltibia 27.959
lfoot -10.4186 -11.1055
ltoes 5.68193
3661
root -12.1573 17.5911 7.07199 -181.557 180.101 -183.452
lowerback 6.20351 -0.061964 -0.138655
upperback 2.7739 -0.056894 2.94793
thorax -0.617174 -0.0456834 3.11779
lowerneck -14.6341 1.86265 -5.9944
upperneck 38.9455 5.30543 -0.92132
head 16.3222 1.1888 1.59919
rclavicle 6.80837e-015 9.54166e-015
rhumerus -30.2853 -1.67998 -84.7488
rradius 37.7619
rwrist -14.5016
rhand -19.2114 12.8814
rfingers 7.12502
rthumb 7.10112 -16.9795
lclavicle 6.80837e-015 9.54166e-015
lhumerus -31.1023 2.21826 82.468
lradius 46.5591
lwrist 8.98097
lhand -18.8607 24.7113
lfingers 7.12502
lthumb 7.43964 54.5605
rfemur -17.0329 1.36537 23.1533
rtibia 39.8494
rfoot -22.6068 4.1209
rtoes -4.86868
lfemur -12.829 1.32428 -17.7082
ltibia 28.182
lfoot -10.7983 -10.9003
ltoes 3.68774
3662
root -12.1653 17.5681 7.12156 -181.651 179.846 -182.956
lowerback 6.35618 0.00274415 -0.549786
upperback 2.71506 0.00724156 2.7805
thorax -0.765989 -0.0136567 3.17303
lowerneck -14.4549 1.78831 -6.13933
upperneck 38.9652 5.19042 -0.822459
head 16.2836 1.13796 1.64472
rclavicle 8.64713e-015 1.51076e-014
rhumerus -30.6526 -1.87727 -84.7132
rradius 38.2681
rwrist -14.2355
rhand -19.7011 11.5539
rfingers 7.12502
rthumb 6.62835 -18.3224
lclavicle 8.64713e-015 1.51076e-014
lhumerus -31.1076 1.99019 82.5359
lradius 46.6807
lwrist 9.03855
lhand -18.762 25.6071
lfingers 7.12502
lthumb 7.53488 55.4529
rfemur -16.8874 1.78099 22.4728
rtibia 38.8308
rfoot -22.9029 5.05849
rtoes -6.88709
lfemur -12.7035 1.09525 -18.2497
ltibia 28.4231
lfoot -11.0068 -10.8964
ltoes 3.9498
